<?xml version="1.0" encoding="UTF-8"?>
<svg xmlns="http://www.w3.org/2000/svg" xmlns:xlink="http://www.w3.org/1999/xlink" viewBox="0 0 925.6 285.7">
  <defs>
    <style> .cls-1 { fill: url(#linear-gradient-2); } .cls-2 { fill: url(#linear-gradient); } .cls-3 { isolation: isolate; } .cls-4 { fill: url(#linear-gradient-4); opacity: .7; } .cls-5 { fill: url(#linear-gradient-3); opacity: .76; } .cls-6 { fill: url(#radial-gradient); opacity: .71; } .cls-6, .cls-7 { mix-blend-mode: overlay; } .cls-8 { fill: #fcfcfc; } .cls-7 { fill: url(#linear-gradient-5); opacity: .65; } </style>
    <linearGradient id="linear-gradient" x1="16.86" y1="19.24" x2="280.43" y2="240.4" gradientUnits="userSpaceOnUse">
      <stop offset=".34" stop-color="#bbebff"></stop>
      <stop offset=".48" stop-color="#7eb3e8"></stop>
      <stop offset=".74" stop-color="#1753c3"></stop>
    </linearGradient>
    <linearGradient id="linear-gradient-2" x1="140.58" y1="109.85" x2="244.51" y2="202.32" gradientUnits="userSpaceOnUse">
      <stop offset=".12" stop-color="#99d7f9"></stop>
      <stop offset=".63" stop-color="#3578d6"></stop>
      <stop offset=".88" stop-color="#0a4fc7"></stop>
    </linearGradient>
    <radialGradient id="radial-gradient" cx="51.23" cy="152.59" fx="16.69" fy="163.32" r="36.17" gradientTransform="translate(-241.32 253.44) rotate(-99.49) scale(1 2)" gradientUnits="userSpaceOnUse">
      <stop offset=".24" stop-color="#c2eeff" stop-opacity="0"></stop>
      <stop offset=".25" stop-color="#c3eeff" stop-opacity=".03"></stop>
      <stop offset=".35" stop-color="#d3f2ff" stop-opacity=".28"></stop>
      <stop offset=".44" stop-color="#e0f6ff" stop-opacity=".5"></stop>
      <stop offset=".54" stop-color="#ebf9ff" stop-opacity=".68"></stop>
      <stop offset=".63" stop-color="#f3fbff" stop-opacity=".82"></stop>
      <stop offset=".71" stop-color="#fafdff" stop-opacity=".92"></stop>
      <stop offset=".79" stop-color="#fdfeff" stop-opacity=".98"></stop>
      <stop offset=".85" stop-color="#fff"></stop>
    </radialGradient>
    <linearGradient id="linear-gradient-3" x1="155.99" y1="128.2" x2="240.57" y2="177.03" gradientUnits="userSpaceOnUse">
      <stop offset=".22" stop-color="#fff"></stop>
      <stop offset=".34" stop-color="#c0d5f2"></stop>
      <stop offset=".57" stop-color="#3c7ed8"></stop>
    </linearGradient>
    <linearGradient id="linear-gradient-4" x1="202.35" y1="213.28" x2="233.31" y2="298.12" gradientUnits="userSpaceOnUse">
      <stop offset=".11" stop-color="#fff"></stop>
      <stop offset=".14" stop-color="#fafbfd" stop-opacity=".98"></stop>
      <stop offset=".19" stop-color="#eef2fa" stop-opacity=".93"></stop>
      <stop offset=".23" stop-color="#d9e2f5" stop-opacity=".84"></stop>
      <stop offset=".28" stop-color="#bbcded" stop-opacity=".71"></stop>
      <stop offset=".33" stop-color="#95b1e3" stop-opacity=".55"></stop>
      <stop offset=".38" stop-color="#678ed7" stop-opacity=".35"></stop>
      <stop offset=".44" stop-color="#3267ca" stop-opacity=".12"></stop>
      <stop offset=".46" stop-color="#1753c3" stop-opacity="0"></stop>
    </linearGradient>
    <linearGradient id="linear-gradient-5" x1="169.4" y1="16.98" x2="215.33" y2="62.91" gradientUnits="userSpaceOnUse">
      <stop offset="0" stop-color="#fff"></stop>
      <stop offset=".14" stop-color="#fefeff" stop-opacity=".99"></stop>
      <stop offset=".27" stop-color="#fbfeff" stop-opacity=".94"></stop>
      <stop offset=".39" stop-color="#f7fcff" stop-opacity=".87"></stop>
      <stop offset=".51" stop-color="#f0fbff" stop-opacity=".77"></stop>
      <stop offset=".63" stop-color="#e8f8ff" stop-opacity=".64"></stop>
      <stop offset=".74" stop-color="#dff6ff" stop-opacity=".48"></stop>
      <stop offset=".86" stop-color="#d3f2ff" stop-opacity=".29"></stop>
      <stop offset=".97" stop-color="#c6efff" stop-opacity=".07"></stop>
      <stop offset="1" stop-color="#c2eeff" stop-opacity="0"></stop>
    </linearGradient>
  </defs>
  <g class="cls-3">
    <g id="Layer_1" data-name="Layer 1">
      <g>
        <g id="Peptides">
          <path class="cls-8" d="M733.52,264.59c-10.7,3.88-22.62,3.07-32.95-1.39-1.27-2.46-.56-6.63-.11-9.46,6.28,2.94,27.61,8.05,29.02-.64.44-2.68-1.2-4.97-3.89-5.89l-16.11-5.48c-5.69-1.94-9.57-5.97-9.75-11.61-.18-5.64,2.65-10.93,8.58-13.4,9.53-3.96,20.88-3.09,30.69.65,1.36,2.4.98,6.53.26,9.38-6.07-2.91-24.38-6.56-25.93.58-.55,2.54.55,5.07,3.35,6.01l16.17,5.47c6.02,2.03,10.08,6.35,10,12.4-.07,5.65-2.89,11.04-9.34,13.38Z"></path>
          <path class="cls-8" d="M531.14,256.4c.7,3.41.6,6.05-.04,9.25-6.09,1.56-12.13,1.81-18.26.42s-10.13-6.25-10.23-12.6l-.45-28.54-9.66-.41c-.36-2.93-.44-5.66-.06-8.69l9.81-.95c.65-4.62.23-8.56.3-13.03l12.61-1.15.64,14.37,15.4.52c.39,3.18.34,5.87-.05,8.86l-15.67.33-.08,24.95c-.01,3.75,2.23,6.51,5.88,7.16,3.18.57,5.71.21,9.86-.48Z"></path>
          <path class="cls-8" d="M543.2,265.77l.04-50.15c4.37-.66,8.23-.33,12.61-.25l.18,50.28c-4.11.63-7.45.61-12.83.12Z"></path>
          <rect class="cls-8" x="542.68" y="193.11" width="13.47" height="11.59"></rect>
          <path class="cls-8" d="M354.82,203.04c-4.79-4.96-11.37-7.9-18.57-8.32-12.08-.7-23.75-.36-35.99-.21l.04,71.05c4.42.83,8.58.72,13.12.16l.49-22.05c8.68-.2,16.61.47,24.91-.82,12.89-2,21.12-11.5,20.78-24.19-.15-5.69-.88-11.23-4.78-15.62ZM313.63,232.83l.05-27.94c6.89-.28,13.49-.43,20.17.2,7.47.71,12.43,6.1,12.2,13.95-.52,17.74-20.63,13.63-32.42,13.79Z"></path>
          <path class="cls-8" d="M624.51,192.99l-12.43-.11-.54,28.04c-9.38-8.18-23.83-9.39-33.68-1.82-7.63,5.86-10.15,14.54-9.81,23.6.55,14.13,11.04,24.54,25.28,24.32,6.65-.1,12.85-1.73,17.79-6.77,1.34,1.92.25,4.21,1.36,5.3,4.1.85,8.21.69,12.24-.11l-.21-72.45ZM610.12,249.95c-4.76,8.84-18.36,9.52-24.42,2.36-5.26-6.2-5.59-16.51-.67-22.97,6.17-8.11,20.77-7.4,25.45,1.88,2.53,5.02,2.51,13.38-.36,18.73Z"></path>
          <path class="cls-8" d="M459.8,214.22c-6.19.54-12.02,2.46-16.5,7.95l-.92-6.75c-4.29-.05-8.14-.38-12.07.05l-.14,69.95c4.64.44,8.58.26,12.81.12l.25-25.39c6.21,5.68,13.43,7.54,21.05,6.77,14.26-1.45,22.57-12.49,22.74-26.2.2-15.72-11.09-27.92-27.22-26.5ZM471.76,249.42c-2.68,5.95-9.17,8.44-16.07,7.44-5.81-.83-10.89-3.91-12.06-9.33-.98-4.51-1.34-9.91.07-14.33,1.73-5.45,7.65-8.53,12.43-9.1,5.48-.66,11.56.98,14.7,6,3.49,5.59,3.61,13.36.93,19.32Z"></path>
          <path class="cls-8" d="M689.84,243.21c.98-7.7-.27-15.76-5.5-21.52-5.64-6.2-13.91-7.75-21.99-7.4-16.02.69-27.01,13.27-25.67,29.04.92,10.73,7.48,19.01,18.14,22,10.15,2.85,21.01,1.93,30.88-2.31.73-3.27.76-6.45-.09-9.82-7.94,3.57-15.53,5.6-23.95,3.74-6.98-1.54-11.82-6.97-11.1-13.46l39.28-.27ZM650.16,235.78c.96-8.57,8.12-13.43,16.04-12.9,6.57.59,11.74,4.64,12.16,12.57l-28.2.33Z"></path>
          <path class="cls-8" d="M417.94,243.29c1.03-7.72-.25-15.84-5.6-21.62-5.93-6.41-14.65-8.04-23.1-7.33-15.02,1.26-25.28,13.43-24.25,28.39.73,10.55,6.63,19.11,17.13,22.34,10.1,3.1,21.65,2.49,31.51-2.03,1.79-2.35.82-6.99.42-10.07-7.57,3.8-15.68,5.96-24.54,4.02-6.92-1.51-11.4-7.09-10.77-13.55l39.2-.15ZM394.18,222.86c6.68.55,11.89,4.66,12.14,12.59l-27.62.13c.57-7.88,7.47-13.39,15.48-12.72Z"></path>
        </g>
        <g id="Pure_One" data-name="Pure One">
          <g id="Unused">
            <path class="cls-8" d="M870.53,120.01c-.15-.11-.2-.24-.14-.37.05.12.1.25.14.37Z"></path>
            <path class="cls-8" d="M870.53,120.01c-.15-.11-.2-.24-.14-.37.05.12.1.25.14.37Z"></path>
            <path class="cls-8" d="M869.18,134.44c.08-.17.18-.31.31-.41-.11.13-.21.27-.31.41Z"></path>
            <path class="cls-8" d="M870.53,120.01c-.15-.11-.2-.24-.14-.37.05.12.1.25.14.37Z"></path>
            <path class="cls-8" d="M786.42,96.71h-.01v-.02s.01.01.01.02Z"></path>
            <path class="cls-8" d="M792.55,94.36c-1.58.88-2.81,1.75-3.77,2.54.12-.13.24-.26.36-.38.49-.5,1.75-1.29,3.41-2.16Z"></path>
          </g>
          <g id="One">
            <path class="cls-8" d="M869.49,134.03c.21-.19.49-.29.85-.29l54.59-.29c.57-8.91,1.95-18.24-2.37-25.64-.18-.31-3.15-6.64-9.07-11.88-5.49-4.58-11.53-6.55-19.1-7.16-25.36-2.03-46.15,16.4-46.09,41.92.02,9.68,2,19.01,9.39,25.7,14.71,13.33,44.12,11.93,60.53,1.68l-6.67-13c-13.14,7.33-29.76,10.02-40.1-.38-2.63-2.08-4.07-7.49-2.27-10.25.08-.17.18-.31.31-.41ZM870.39,119.64c3-11.22,13.45-17.96,24.9-15.66.35.01.69.03,1.02.06-.36.02-.7,0-1.02-.06,7.16.98,12.72,10.06,9.7,16.41-2.31.84-32.02,1.56-34.46-.38-.15-.11-.2-.24-.14-.37Z"></path>
            <path class="cls-8" d="M837.63,127.95l-4.24,35.73c-6.93,1.01-13.3,1.25-20.46.04l4.52-41.9c.63-5.89-.82-10.83-5.17-14.17-9.59-4.27-26.27-.89-27.81,10.73l-6.04,45.57-20.5.23,8.1-74.17,8.33-.12.93-.02h.35l10.58-.16-.37,5.76-.35,5.31s.6-1.67,3.28-3.88c.96-.79,2.19-1.66,3.77-2.54.03-.03.07-.05.11-.07.01,0,.02,0,.03,0,.2-.1.41-.21.62-.32.01-.01.03-.01.05-.02,3.8-1.92,9.21-4.07,12.85-4.39,4.34-.49,8.71-.5,13.08-.04.55-.18,1.49.17,2.06.27,8.74,1.6,15.4,8.68,16.78,18.07.98,6.67.3,13.4-.5,20.1Z"></path>
            <path class="cls-8" d="M719.89,59.8c-10.89-3.31-22.36-3.89-33.7-2.52-31.22,3.79-52.02,29.34-51.45,60.51.34,18.64,8.78,35.44,26.68,42.8,13.73,5.65,26.95,6.84,42.59,4.42,30.03-4.64,48.76-29.09,48.87-58.32.08-21.85-11.46-40.33-32.99-46.89ZM724.1,129.3c-7.49,13.65-21.7,19.54-37.16,18.41-17.84-1.29-29.43-13.67-28.93-31.12.37-13.24,4.48-26.33,15.78-34.38,10.43-7.42,24.62-9.09,36.47-4.81,22.93,8.29,22.56,36.01,13.84,51.9Z"></path>
          </g>
          <g id="Pure">
            <path class="cls-8" d="M621.31,133.43c2.85-13.42,1.46-29.44-10.47-38.38-6.83-5.11-15.22-6.27-23.47-6.25-24.44.08-42,18.9-41.98,42.94.01,16.42,9.66,29.62,26.32,32.92,14.25,2.83,29.54.95,42.81-5.79-1.32-5.11-3.18-9.58-5.93-13.33-10.26,4.62-21.05,7.91-31.79,4.36-7.37-2.43-11.37-8.78-10.29-16.29l54.8-.18ZM577.63,106.16c6.81-3.6,15.06-3.69,20.74.51,4.26,3.14,5.23,8.89,4.53,14.44l-35.33.04c.46-6.7,5.2-12.43,10.06-14.99Z"></path>
            <path class="cls-8" d="M506.27,163.64c-6.83,1-13.8.5-20.65.19l8.17-73.55,20.23-.17c.24,3.97-1.46,7.27-.49,11.79,6.9-10.06,18.66-15.5,30.92-12.23-.42,6.19-1.23,11.79-2.57,18.28-12.62-3.44-28.81,1.54-30.55,15.38l-5.08,40.3Z"></path>
            <path class="cls-8" d="M478.54,90.14l-8.11,73.7c-7.01.49-13.28.39-20,0,.03-3.72,1.4-6.49.4-10.11-10.31,11.59-25.78,15.36-40.16,9.69-11.8-4.66-13.91-17.27-12.57-28.79l5.15-44.43c6.74-.27,13.51-.4,20.48.06l-4.66,46.33c-.73,7.29,4.62,12.24,11.83,12.85,8.23.69,20.21-4.19,21.4-13.39l5.9-45.65c6.07-.81,12.23-.23,20.32-.26Z"></path>
            <path class="cls-8" d="M373.18,60.69c-6.07-2.07-12.31-3.23-18.9-3.21l-40.79.12-12.1,106.49c7.7.44,14.58.28,22.09-.23l4.14-33.52,25.25-.19c18.19-.14,37.27-10.64,39.98-31.84,2.23-17.43-2.41-30.99-19.67-37.62ZM352.35,112.08c-7.33.69-14.88.32-22.68.16l3.81-36.48c13.65.55,36.58-5.37,37.27,15.4.39,11.81-7.01,19.85-18.4,20.92Z"></path>
          </g>
        </g>
      </g>
      <path class="cls-2" d="M251.09,244.08c0,23.65-19.72,42.68-43.6,41.57-21.55-1-38.96-18.71-39.62-40.27,0-.12,0-.24,0-.37-.12-5.48-3.23-10.46-8.17-12.84l-60.47-29.19c-5.68-2.74-12.42-2.28-17.58,1.35-8.78,6.17-19.55,9.68-31.16,9.37C22.65,212.97.13,189.94,0,162.1s23.15-52.12,51.87-52.12c9.76,0,18.88,2.69,26.67,7.37,6.18,3.71,13.95,3.53,19.75-.76l40.51-29.92c6.25-4.62,8.75-12.8,6.08-20.1-1.92-5.25-2.98-10.91-3-16.82-.11-26.23,20.69-48.31,46.89-49.67,30.02-1.56,54.59,23.62,52,53.84-2.07,24.16-21.8,43.46-46,45.06-7.35.49-14.39-.64-20.79-3.05-5.61-2.11-11.9-1.38-16.71,2.2l-47.87,35.7c-5.4,4.02-8.12,10.8-6.75,17.39.72,3.43,1.09,6.99,1.09,10.64,0,1.85-.1,3.69-.29,5.49-.76,7.28,3.23,14.23,9.81,17.43l54.69,26.56c5.77,2.8,12.56,2.18,17.83-1.48,6.72-4.66,14.88-7.39,23.69-7.39,22.98,0,41.62,18.63,41.62,41.62Z"></path>
      <circle class="cls-1" cx="186.57" cy="150.77" r="27.97"></circle>
      <ellipse class="cls-6" cx="51.23" cy="152.59" rx="38.97" ry="33.14"></ellipse>
      <ellipse class="cls-5" cx="186.57" cy="145.85" rx="21.56" ry="17.05"></ellipse>
      <ellipse class="cls-4" cx="210.15" cy="234.67" rx="32.2" ry="24.75"></ellipse>
      <ellipse class="cls-7" cx="192.36" cy="39.94" rx="35.38" ry="29.29"></ellipse>
    </g>
  </g>
</svg>
